<svg width="520" height="520" viewBox="68 42 384 420" fill="none" xmlns="http://www.w3.org/2000/svg">
  <rect x="70" y="306" width="380" height="126" rx="30" fill="#ffffff" fill-opacity="0.1"/>

  <g transform="translate(102 124)">
    <rect x="0" y="0" width="62" height="62" rx="19" fill="#ffffff" fill-opacity="0.15"/>
    <path d="M31 16L16 24l15 8 15-8-15-8z" stroke="#ffffff" stroke-width="4" stroke-linecap="round" stroke-linejoin="round"/>
    <path d="M16 42l15 8 15-8" stroke="#ffffff" stroke-width="4" stroke-linecap="round" stroke-linejoin="round"/>
    <path d="M16 33l15 8 15-8" stroke="#ffffff" stroke-width="4" stroke-linecap="round" stroke-linejoin="round"/>
  </g>

  <text x="180" y="156" text-anchor="start" fill="#ffffff" font-family="Inter, Onest, Arial, sans-serif" font-size="40" font-weight="800" letter-spacing="-1.1">Uchetka</text>
  <text x="180" y="184" text-anchor="start" fill="#ffffff" fill-opacity="0.62" font-family="Inter, Onest, Arial, sans-serif" font-size="16" font-weight="500">Track lessons, students &amp; income</text>

  <g transform="translate(86 218)">
    <rect width="348" height="232" rx="30" fill="#ffffff" stroke="#e8e7f2" stroke-width="2"/>

    <text x="30" y="39" fill="#1a1833" font-family="Inter, Onest, Arial, sans-serif" font-size="15" font-weight="800">Today dashboard</text>
    <text x="30" y="60" fill="#6868a0" fill-opacity="0.72" font-family="Inter, Onest, Arial, sans-serif" font-size="10" font-weight="600">3 lessons planned · June 24</text>

    <g transform="translate(248 27)">
      <rect width="70" height="34" rx="17" fill="#2d2a5f" fill-opacity="0.1"/>
      <text x="35" y="21" text-anchor="middle" fill="#2d2a5f" font-family="Inter, Onest, Arial, sans-serif" font-size="11" font-weight="800">USD</text>
    </g>

    <g transform="translate(30 88)">
      <rect width="84" height="74" rx="18" fill="#ffffff" stroke="#e8e7f2" stroke-width="2"/>
      <text x="17" y="24" fill="#6868a0" fill-opacity="0.72" font-family="Inter, Onest, Arial, sans-serif" font-size="9" font-weight="700">Income</text>
      <text x="17" y="43" fill="#1a1833" font-family="Inter, Onest, Arial, sans-serif" font-size="15" font-weight="800">$420</text>
      <rect x="17" y="54" width="50" height="10" rx="5" fill="#22c55e"/>
    </g>

    <g transform="translate(132 88)">
      <rect width="84" height="74" rx="18" fill="#ffffff" stroke="#e8e7f2" stroke-width="2"/>
      <text x="17" y="24" fill="#6868a0" fill-opacity="0.72" font-family="Inter, Onest, Arial, sans-serif" font-size="9" font-weight="700">Lessons</text>
      <text x="17" y="43" fill="#1a1833" font-family="Inter, Onest, Arial, sans-serif" font-size="15" font-weight="800">3 today</text>
      <rect x="17" y="54" width="38" height="10" rx="5" fill="#2d2a5f"/>
    </g>

    <g transform="translate(234 88)">
      <rect width="84" height="74" rx="18" fill="#ffffff" stroke="#e8e7f2" stroke-width="2"/>
      <text x="17" y="24" fill="#6868a0" fill-opacity="0.72" font-family="Inter, Onest, Arial, sans-serif" font-size="9" font-weight="700">Expenses</text>
      <text x="17" y="43" fill="#1a1833" font-family="Inter, Onest, Arial, sans-serif" font-size="15" font-weight="800">$35</text>
      <rect x="17" y="54" width="44" height="10" rx="5" fill="#ff7a59"/>
    </g>

    <g transform="translate(30 176)">
      <rect width="288" height="38" rx="19" fill="#ffffff" stroke="#e8e7f2" stroke-width="2"/>
      <circle cx="20" cy="19" r="10" fill="#14b8a6"/>
      <text x="44" y="17" fill="#1a1833" font-family="Inter, Onest, Arial, sans-serif" font-size="11" font-weight="800">Next lesson</text>
      <text x="44" y="30" fill="#6868a0" fill-opacity="0.72" font-family="Inter, Onest, Arial, sans-serif" font-size="9" font-weight="600">Anna · 15:00 · Algebra</text>
      <rect x="226" y="10" width="48" height="18" rx="9" fill="#22c55e" fill-opacity="0.14"/>
      <text x="250" y="22" text-anchor="middle" fill="#22c55e" font-family="Inter, Onest, Arial, sans-serif" font-size="9" font-weight="800">paid</text>
    </g>
  </g>
</svg>
