<svg width="520" height="520" viewBox="68 42 384 420" fill="none" xmlns="http://www.w3.org/2000/svg">
  <rect x="70" y="306" width="380" height="126" rx="30" fill="#ffffff" fill-opacity="0.1"/>

  <g transform="translate(229 54)">
    <rect x="0" y="0" width="62" height="62" rx="19" fill="#ffffff" fill-opacity="0.15"/>
    <path d="M31 16L16 24l15 8 15-8-15-8z" stroke="#ffffff" stroke-width="4" stroke-linecap="round" stroke-linejoin="round"/>
    <path d="M16 42l15 8 15-8" stroke="#ffffff" stroke-width="4" stroke-linecap="round" stroke-linejoin="round"/>
    <path d="M16 33l15 8 15-8" stroke="#ffffff" stroke-width="4" stroke-linecap="round" stroke-linejoin="round"/>
  </g>
  <text x="260" y="164" text-anchor="middle" fill="#ffffff" font-family="Inter, Onest, Arial, sans-serif" font-size="40" font-weight="800" letter-spacing="-1.1">Uchetka</text>
  <text x="260" y="195" text-anchor="middle" fill="#ffffff" fill-opacity="0.62" font-family="Inter, Onest, Arial, sans-serif" font-size="18" font-weight="500">Track lessons, students &amp; income</text>

  <g transform="translate(86 218)">
    <rect width="348" height="232" rx="30" fill="#ffffff" stroke="#e8e7f2" stroke-width="2"/>

    <rect x="30" y="30" width="126" height="14" rx="7" fill="#1a1833"/>
    <rect x="30" y="58" width="88" height="10" rx="5" fill="#6868a0" fill-opacity="0.68"/>
    <rect x="260" y="29" width="58" height="28" rx="14" fill="#2d2a5f" fill-opacity="0.15"/>
    <rect x="274" y="40" width="30" height="6" rx="3" fill="#2d2a5f"/>

    <g transform="translate(30 104)">
      <rect width="84" height="62" rx="18" fill="#ffffff" stroke="#e8e7f2" stroke-width="2"/>
      <rect x="17" y="18" width="38" height="8" rx="4" fill="#6868a0" fill-opacity="0.45"/>
      <rect x="17" y="36" width="50" height="10" rx="5" fill="#22c55e"/>
    </g>
    <g transform="translate(132 104)">
      <rect width="84" height="62" rx="18" fill="#ffffff" stroke="#e8e7f2" stroke-width="2"/>
      <rect x="17" y="18" width="40" height="8" rx="4" fill="#6868a0" fill-opacity="0.45"/>
      <rect x="17" y="36" width="38" height="10" rx="5" fill="#2d2a5f"/>
    </g>
    <g transform="translate(234 104)">
      <rect width="84" height="62" rx="18" fill="#ffffff" stroke="#e8e7f2" stroke-width="2"/>
      <rect x="17" y="18" width="38" height="8" rx="4" fill="#6868a0" fill-opacity="0.45"/>
      <rect x="17" y="36" width="44" height="10" rx="5" fill="#ff7a59"/>
    </g>

    <g transform="translate(30 180)">
      <rect width="288" height="34" rx="17" fill="#ffffff" stroke="#e8e7f2" stroke-width="2"/>
      <circle cx="20" cy="17" r="10" fill="#14b8a6"/>
      <rect x="44" y="9" width="126" height="8" rx="4" fill="#1a1833"/>
      <rect x="44" y="22" width="86" height="6" rx="3" fill="#6868a0" fill-opacity="0.68"/>
      <rect x="232" y="9" width="38" height="16" rx="8" fill="#22c55e" fill-opacity="0.15"/>
      <rect x="242" y="14" width="18" height="6" rx="3" fill="#22c55e"/>
    </g>
  </g>
</svg>
