<svg width="1200" height="630" viewBox="0 0 1200 630" fill="none" xmlns="http://www.w3.org/2000/svg">
  <defs>
    <linearGradient id="card" x1="150" y1="90" x2="1050" y2="540" gradientUnits="userSpaceOnUse">
      <stop stop-color="#ffffff"/>
      <stop offset="1" stop-color="#f0eff8"/>
    </linearGradient>
  </defs>

  <rect width="1200" height="630" fill="#fafaf9"/>
  <circle cx="1030" cy="110" r="170" fill="#f0eff8"/>
  <circle cx="80" cy="540" r="220" fill="#e8e7f2"/>
  <circle cx="1030" cy="540" r="130" fill="#d4d3e8" opacity="0.55"/>

  <rect x="150" y="90" width="900" height="450" rx="42" fill="#1a1833" opacity="0.08"/>
  <rect x="150" y="90" width="900" height="450" rx="42" fill="url(#card)" stroke="#e8e7f2" stroke-width="2"/>

  <g transform="translate(216 156)">
    <rect width="82" height="82" rx="24" fill="#2d2a5f"/>
    <path d="M41 18L18 30l23 12 23-12-23-12z" stroke="#ffffff" stroke-width="5" stroke-linecap="round" stroke-linejoin="round"/>
    <path d="M18 52l23 12 23-12" stroke="#ffffff" stroke-width="5" stroke-linecap="round" stroke-linejoin="round"/>
    <path d="M18 41l23 12 23-12" stroke="#ffffff" stroke-width="5" stroke-linecap="round" stroke-linejoin="round"/>
  </g>

  <text x="326" y="191" fill="#1a1833" font-family="Inter, Onest, Arial, sans-serif" font-size="54" font-weight="800" letter-spacing="-1.6">Uchetka</text>
  <text x="326" y="234" fill="#6868a0" font-family="Inter, Onest, Arial, sans-serif" font-size="24" font-weight="500">Finance tracker for tutors</text>

  <text x="216" y="335" fill="#1a1833" font-family="Inter, Onest, Arial, sans-serif" font-size="44" font-weight="800" letter-spacing="-1.2">Lessons. Students. Money.</text>
  <text x="216" y="390" fill="#1a1833" font-family="Inter, Onest, Arial, sans-serif" font-size="44" font-weight="800" letter-spacing="-1.2">No spreadsheet chaos.</text>
  <text x="216" y="448" fill="#6868a0" font-family="Inter, Onest, Arial, sans-serif" font-size="24" font-weight="500">Open-source dashboard for tutor finances.</text>

  <g transform="translate(796 174)">
    <rect width="190" height="252" rx="28" fill="#ffffff" stroke="#e8e7f2" stroke-width="2"/>
    <rect x="26" y="34" width="138" height="18" rx="9" fill="#1a1833" opacity="0.9"/>
    <rect x="26" y="70" width="96" height="12" rx="6" fill="#6868a0" opacity="0.72"/>
    <rect x="26" y="108" width="138" height="44" rx="14" fill="#2d2a5f" fill-opacity="0.15"/>
    <rect x="42" y="124" width="72" height="12" rx="6" fill="#2d2a5f"/>
    <rect x="26" y="168" width="62" height="46" rx="14" fill="#22c55e" fill-opacity="0.15"/>
    <rect x="42" y="185" width="30" height="12" rx="6" fill="#22c55e"/>
    <rect x="102" y="168" width="62" height="46" rx="14" fill="#ff7a59" fill-opacity="0.15"/>
    <rect x="118" y="185" width="30" height="12" rx="6" fill="#ff7a59"/>
  </g>

  <g transform="translate(718 390)">
    <rect width="282" height="74" rx="22" fill="#ffffff" stroke="#e8e7f2" stroke-width="2"/>
    <circle cx="42" cy="37" r="20" fill="#14b8a6"/>
    <rect x="78" y="22" width="148" height="12" rx="6" fill="#1a1833" opacity="0.88"/>
    <rect x="78" y="44" width="92" height="9" rx="4.5" fill="#6868a0" opacity="0.72"/>
  </g>
</svg>
